# xmcd
#
# Track frame offsets: 
#        150
#        27484
#        40803
#        60642
#        77489
#        95604
#        114560
#        134392
#        144352
#        165850
#        181187
#        191307
#        203607
#        219616
#        239437
#
# Disc length: 3412 seconds
#
# Revision: 0
# Processed by: cddbd v1.5.2PL0 Copyright (c) Steve Scherf et al.
# Submitted via: ExactAudioCopy v1.0b1
#
DISCID=c40d520f
DTITLE=Iwan Fals - Akustik 2
DYEAR=2005
DGENRE=Pop
TTITLE0=Siang Seberang Istana
TTITLE1=Ibu
TTITLE2=Kereta Tiba Pukul Berapa
TTITLE3=Sapuku Sapumu Sapu-Sapu
TTITLE4=Tak Biru Lagi Lautku
TTITLE5=Sore Tugu Pancoran
TTITLE6=Bangunlah Putra Putri Pertiwi
TTITLE7=Ya Ya Ya... Oh... Ya
TTITLE8=Intermezo
TTITLE9=Kumenanti Seorang Kekasih
TTITLE10=Dua Menit Sepuluh Detik
TTITLE11=Nak
TTITLE12=Barang Antik
TTITLE13=Ikrar
TTITLE14=Joni Kesiangan
EXTD=
EXTT0=
EXTT1=
EXTT2=
EXTT3=
EXTT4=
EXTT5=
EXTT6=
EXTT7=
EXTT8=
EXTT9=
EXTT10=
EXTT11=
EXTT12=
EXTT13=
EXTT14=
PLAYORDER=
